<?xml version="1.0" standalone="no"?>
<!DOCTYPE svg PUBLIC "-//W3C//DTD SVG 1.1//EN" "http://www.w3.org/Graphics/SVG/1.1/DTD/svg11.dtd" >
<svg xmlns="http://www.w3.org/2000/svg">
<metadata>
This is a custom SVG webfont generated by Font Squirrel.
Copyright   : 2009 Commercial Type
Designer    : Christian Schwartz
Foundry     : Commercial Type
Foundry URL : httpcommercialtypecom
</metadata>
<defs>
<font id="GraphikSemibold" horiz-adv-x="1671" >
<font-face units-per-em="2048" ascent="1683" descent="-365" />
<missing-glyph horiz-adv-x="454" />
<glyph unicode=" "  horiz-adv-x="454" />
<glyph unicode="&#x09;" horiz-adv-x="454" />
<glyph unicode="&#xa0;" horiz-adv-x="454" />
<glyph unicode="!" horiz-adv-x="647" d="M137 158q0 76 54.5 127t132 51t132 -51.5t54.5 -126.5q0 -74 -54.5 -125t-132 -51t-132 51t-54.5 125zM160 1464h332l-46 -1007h-241z" />
<glyph unicode="&#x22;" horiz-adv-x="880" d="M98 1464h287l-39 -540h-209zM496 1464h286l-37 -540h-210z" />
<glyph unicode="#" horiz-adv-x="1124" d="M74 524v236h186l29 196h-164v228h197l43 280h206l-41 -280h154l43 280h207l-43 -280h160v-228h-193l-29 -196h170v-236h-204l-47 -321h-207l47 321h-154l-47 -321h-209l47 321h-151zM469 760h154l28 196h-153z" />
<glyph unicode="$" horiz-adv-x="1310" d="M66 457h303q12 -100 59 -162t160 -78v395q-250 39 -366 140.5t-116 300.5q0 178 131.5 296.5t350.5 133.5v182h145v-184q434 -39 471 -428h-293q-29 164 -178 192v-366q248 -39 372 -135.5t124 -299.5q0 -190 -130 -319t-366 -145v-256h-145v256q-254 18 -382 145 t-140 332zM401 1079q0 -74 39 -113.5t148 -62.5v346q-88 -12 -137.5 -58t-49.5 -112zM733 217q90 16 141.5 66.5t51.5 126t-41 115.5t-152 65v-373z" />
<glyph unicode="%" horiz-adv-x="1660" d="M57 1120q0 154 107.5 256.5t263.5 102.5t261.5 -100.5t105.5 -254.5q0 -158 -104.5 -261t-264.5 -103q-162 0 -265.5 102t-103.5 258zM254 0l973 1464h184l-973 -1464h-184zM285 1122q0 -86 37.5 -132t105.5 -46q66 0 102.5 47t36.5 131q0 82 -36.5 129t-102.5 47 t-104.5 -47t-38.5 -129zM866 338q0 154 106.5 257t262.5 103t262.5 -100t106.5 -254q0 -158 -104.5 -262.5t-264.5 -104.5q-162 0 -265.5 102.5t-103.5 258.5zM1094 340q0 -84 37.5 -130t103.5 -46q68 0 104.5 46t36.5 130t-36.5 130t-104.5 46q-66 0 -103.5 -46t-37.5 -130 z" />
<glyph unicode="&#x26;" horiz-adv-x="1503" d="M80 408q0 272 326 430q-102 141 -103 276q0 172 124 268.5t306 96.5q168 0 282.5 -88t114.5 -240q0 -242 -299 -367l230 -280l131 256h262l-237 -461l243 -299h-379l-106 131q-166 -152 -400 -151q-225 0 -360 114.5t-135 313.5zM391 440q0 -100 59.5 -158.5t167.5 -58.5 q119 0 203 99l-278 337q-152 -78 -152 -219zM592 1110q0 -76 98 -195q94 43 135 94.5t41 125.5q0 57 -35.5 94t-93.5 37q-63 0 -104 -41t-41 -115z" />
<glyph unicode="'" horiz-adv-x="491" d="M98 1464h295l-39 -540h-217z" />
<glyph unicode="(" horiz-adv-x="702" d="M88 641q0 541 342 944h244q-297 -416 -297 -944q0 -524 297 -944h-244q-342 403 -342 944z" />
<glyph unicode=")" horiz-adv-x="702" d="M31 -299q295 418 295 944q0 522 -295 944h243q340 -406 340 -944.5t-340 -943.5h-243z" />
<glyph unicode="*" horiz-adv-x="888" d="M70 1155l61 211l229 -104l-34 260h239l-37 -260l230 104l61 -211l-246 -39l179 -198l-183 -132l-127 240l-125 -240l-182 132l178 198z" />
<glyph unicode="+" horiz-adv-x="1128" d="M76 586v223h368v399h242v-399h369v-223h-369v-400h-242v400h-368z" />
<glyph unicode="," horiz-adv-x="610" d="M47 -176l180 506l279 -105l-279 -477z" />
<glyph unicode="-" horiz-adv-x="745" d="M111 459v235h524v-235h-524z" />
<glyph unicode="." horiz-adv-x="600" d="M117 162q0 74 53 126t129 52q78 0 131 -52t53 -126q0 -76 -53 -128t-131 -52q-76 0 -129 52t-53 128z" />
<glyph unicode="/" horiz-adv-x="866" d="M-27 -303l629 1892h244l-631 -1892h-242z" />
<glyph unicode="0" horiz-adv-x="1460" d="M92 696v70q0 334 176 526.5t463 192.5q289 0 463 -188.5t174 -524.5v-67q0 -336 -171 -532t-468 -196q-293 0 -465 192.5t-172 526.5zM424 698q0 -461 313 -460q301 0 301 464v66q0 223 -76.5 342t-228.5 119q-309 0 -309 -461v-70z" />
<glyph unicode="1" horiz-adv-x="882" d="M66 942v283l337 239h291v-1464h-332v1137z" />
<glyph unicode="2" horiz-adv-x="1214" d="M25 0v53l536 568q115 121 173.5 219t58.5 192q0 92 -50.5 145.5t-144.5 53.5q-203 0 -233 -268h-302q12 252 157 387t392 135q240 0 374 -122t134 -323q0 -137 -71.5 -261t-210.5 -257l-277 -270h569v-252h-1105z" />
<glyph unicode="3" horiz-adv-x="1300" d="M66 465h299q20 -244 263.5 -244t243.5 211t-235 211h-115v221h107q223 0 223 195q0 82 -52 132t-151 50q-102 0 -165.5 -58.5t-75.5 -162.5h-293q12 207 154.5 336t385.5 129q236 0 373 -110.5t137 -287.5q0 -231 -241 -317q131 -29 207.5 -118t76.5 -226 q0 -207 -150.5 -328t-416.5 -121q-272 0 -418.5 129.5t-156.5 358.5z" />
<glyph unicode="4" horiz-adv-x="1343" d="M53 291v121l633 1052h408v-936h192v-237h-192v-291h-322v291h-719zM385 528h393v686z" />
<glyph unicode="5" horiz-adv-x="1259" d="M66 436h305q14 -102 65 -153.5t170 -51.5q111 0 170.5 71t59.5 189.5t-63.5 187.5t-174.5 69q-178 0 -281 -117h-184l21 833h927v-252h-680l-6 -366q111 135 326 135q203 0 325.5 -132t122.5 -362q0 -233 -153.5 -371.5t-407.5 -138.5q-258 0 -394 126t-148 333z" />
<glyph unicode="6" horiz-adv-x="1339" d="M92 676v37q0 362 175 567t452 205q221 0 352 -103.5t156 -302.5h-307q-16 78 -61.5 117t-135.5 39q-137 0 -217 -119t-86 -342q113 182 354 182q211 0 347 -129t136 -346q0 -227 -152.5 -365.5t-410.5 -138.5q-315 0 -458.5 188.5t-143.5 510.5zM440 487 q0 -125 69 -197.5t181 -72.5q109 0 175.5 71.5t66.5 188.5t-65.5 188.5t-176 71.5t-180.5 -70.5t-70 -179.5z" />
<glyph unicode="7" horiz-adv-x="1142" d="M55 1196v268h1061v-37l-524 -1427h-338l446 1196h-645z" />
<glyph unicode="8" horiz-adv-x="1308" d="M82 414q0 131 71.5 226t198.5 140q-213 88 -213 305q0 182 151.5 291t366.5 109q219 0 366.5 -107.5t147.5 -290.5q0 -211 -213 -305q129 -45 199 -137t70 -223q0 -209 -160 -327t-412 -118t-412.5 114t-160.5 323zM412 444q0 -106 69.5 -165.5t173.5 -59.5 q106 0 175 60.5t69 166.5q0 104 -67.5 164t-174 60t-176 -61t-69.5 -165zM449 1063q0 -86 61 -138.5t149 -52.5q90 0 147.5 52.5t57.5 140.5q0 84 -59.5 136t-147.5 52q-90 0 -149 -52t-59 -138z" />
<glyph unicode="9" horiz-adv-x="1341" d="M82 979q0 229 153.5 368.5t413.5 139.5q295 0 446.5 -184.5t151.5 -509.5v-66q0 -360 -158.5 -553.5t-453.5 -193.5q-238 0 -376 108.5t-163 306.5h310q33 -164 219 -164q287 0 297 453q-113 -178 -351 -178q-217 0 -353 127t-136 346zM403 987q0 -117 66 -188.5 t176.5 -71.5t180 68.5t69.5 177.5q0 127 -68.5 200.5t-181.5 73.5q-109 0 -175.5 -71.5t-66.5 -188.5z" />
<glyph unicode=":" horiz-adv-x="614" d="M125 162q0 74 52 126t128 52q78 0 131 -52t53 -126q0 -76 -53 -128t-131 -52q-76 0 -128 52t-52 128zM125 756q0 74 52 126t128 52q78 0 131 -52.5t53 -125.5q0 -76 -53 -128.5t-131 -52.5q-76 0 -128 52.5t-52 128.5z" />
<glyph unicode=";" horiz-adv-x="634" d="M29 -176l180 506l276 -105l-278 -477zM162 756q0 74 52 126t128 52q78 0 131 -52.5t53 -125.5q0 -76 -53 -128.5t-131 -52.5q-76 0 -128 52.5t-52 128.5z" />
<glyph unicode="&#x3c;" horiz-adv-x="1042" d="M94 631v59l836 481v-270l-445 -239l445 -248v-267z" />
<glyph unicode="=" horiz-adv-x="1085" d="M80 365v210h926v-210h-926zM80 754v213h926v-213h-926z" />
<glyph unicode="&#x3e;" horiz-adv-x="1042" d="M115 150v270l442 239l-442 248v267l835 -484v-59z" />
<glyph unicode="?" horiz-adv-x="1089" d="M51 1032q8 211 146.5 332t359.5 121q219 0 337 -100.5t118 -268.5q0 -96 -44 -170t-124 -151q-8 -8 -47 -45t-51.5 -48.5t-40 -43t-39 -50t-23.5 -46t-14 -54.5v-51h-275v61q0 57 15.5 106.5t52.5 98.5t60.5 73.5t74.5 75.5q47 45 71.5 72t46 68t21.5 80q0 152 -157 151 q-84 0 -138.5 -56.5t-64.5 -154.5h-285zM301 158q0 76 55.5 127t133 51t132 -51.5t54.5 -126.5q0 -74 -54.5 -125t-132 -51t-133 51t-55.5 125z" />
<glyph unicode="@" horiz-adv-x="1882" d="M72 522q0 385 267 638t636 253q367 0 601 -210t234 -537q0 -276 -125.5 -411.5t-295.5 -135.5q-238 0 -277 170q-90 -178 -287 -178q-152 0 -241.5 99t-89.5 271q0 211 116.5 345.5t286.5 134.5q176 0 233 -130l15 113h254l-66 -543q-23 -145 92 -145q94 0 161 103.5 t67 306.5q0 274 -182.5 441t-493.5 167q-317 0 -527 -209t-210 -545q0 -301 184 -498.5t522 -197.5q319 0 510 176h176q-94 -143 -278.5 -229t-411.5 -86q-399 0 -634.5 241.5t-235.5 595.5zM754 492q0 -82 40 -131.5t107 -49.5q82 0 141.5 75t59.5 198q0 176 -162 176 q-80 0 -133 -73.5t-53 -194.5z" />
<glyph unicode="A" horiz-adv-x="1474" d="M43 0l481 1464h432l476 -1464h-347l-100 326h-530l-101 -326h-311zM526 561h387l-192 633z" />
<glyph unicode="B" horiz-adv-x="1349" d="M158 0v1464h575q240 0 363 -96t123 -285v-8q0 -246 -238 -313q293 -59 293 -344v-8q0 -201 -130 -305.5t-384 -104.5h-602zM481 229h228q238 0 237 207v8q0 102 -60.5 153.5t-193.5 51.5h-211v-420zM481 862h199q119 0 171 45t52 144v8q0 92 -54 135t-171 43h-197v-375z " />
<glyph unicode="C" horiz-adv-x="1531" d="M82 723v16q0 330 206 539t521 209q274 0 449.5 -135t199.5 -398h-340q-37 270 -307 271q-174 0 -276.5 -129t-102.5 -355v-16q0 -227 100.5 -353t280.5 -126q139 0 227 70.5t109 209.5h326q-27 -266 -204 -407.5t-454 -141.5q-352 0 -543.5 201t-191.5 545z" />
<glyph unicode="D" horiz-adv-x="1486" d="M158 0v1464h479q377 0 572.5 -190.5t195.5 -525.5v-17q0 -338 -196.5 -534.5t-573.5 -196.5h-477zM489 258h136q434 0 434 469v16q0 231 -105.5 347t-332.5 116h-132v-948z" />
<glyph unicode="E" horiz-adv-x="1218" d="M158 0v1464h954v-258h-625v-342h500v-241h-500v-365h658v-258h-987z" />
<glyph unicode="F" horiz-adv-x="1161" d="M158 0v1464h940v-260h-609v-387h482v-250h-482v-567h-331z" />
<glyph unicode="G" horiz-adv-x="1597" d="M82 723v16q0 330 210 539t535 209q170 0 306.5 -50.5t232.5 -169t113 -292.5h-330q-41 250 -318 250q-188 0 -295.5 -132t-107.5 -358v-16q0 -223 100.5 -354.5t307.5 -131.5q174 0 261 86.5t91 223.5h-330v241h658v-155q0 -297 -182.5 -474.5t-506.5 -177.5 q-352 0 -548.5 206t-196.5 540z" />
<glyph unicode="H" horiz-adv-x="1564" d="M158 0v1464h331v-598h588v598h332v-1464h-332v604h-588v-604h-331z" />
<glyph unicode="I" horiz-adv-x="665" d="M166 0v1464h334v-1464h-334z" />
<glyph unicode="J" horiz-adv-x="935" d="M72 27v254q92 -35 184 -35q207 0 207 231v987h334v-991q0 -244 -126 -367.5t-356 -123.5q-157 0 -243 45z" />
<glyph unicode="K" horiz-adv-x="1404" d="M158 0v1464h331v-630l512 632h353l-580 -694l608 -772h-387l-506 657v-657h-331z" />
<glyph unicode="L" horiz-adv-x="1146" d="M158 0v1464h331v-1204h596v-260h-927z" />
<glyph unicode="M" horiz-adv-x="1865" d="M158 0v1464h438l342 -911l338 911h430v-1464h-330v1028l-405 -1028h-109l-407 1028v-1028h-297z" />
<glyph unicode="N" horiz-adv-x="1552" d="M158 0v1464h385l557 -964v964h295v-1464h-332l-610 1042v-1042h-295z" />
<glyph unicode="O" d="M82 723v16q0 326 213 536t541 210q332 0 542.5 -205t210.5 -532v-17q0 -330 -207.5 -542t-547.5 -212t-546 210t-206 536zM428 725q0 -221 114.5 -352t297.5 -131q186 0 294.5 132t108.5 353v16q0 217 -108.5 348.5t-299 131.5t-299 -130t-108.5 -352v-16z" />
<glyph unicode="P" horiz-adv-x="1282" d="M158 0v1464h506q270 0 414.5 -118.5t144.5 -348.5v-8q0 -225 -145.5 -341t-403.5 -116h-187v-532h-329zM487 764h168q248 0 248 223v8q0 217 -248 217h-168v-448z" />
<glyph unicode="Q" d="M82 723v16q0 326 213 536t541 210q332 0 542.5 -205t210.5 -532v-17q0 -362 -241 -575l149 -160l-188 -186l-199 210q-135 -43 -276 -43q-340 0 -546 209t-206 537zM428 725q0 -227 113.5 -359.5t298.5 -132.5q25 0 69 5l-139 151l193 180l180 -194q100 135 100 352v16 q0 217 -108.5 348.5t-299 131.5t-299 -129t-108.5 -353v-16z" />
<glyph unicode="R" horiz-adv-x="1376" d="M158 0v1464h524q266 0 415.5 -111.5t149.5 -332.5v-8q0 -299 -301 -389l387 -623h-352l-350 565h-144v-565h-329zM487 791h187q250 0 250 210v9q0 109 -62.5 154.5t-187.5 45.5h-187v-419z" />
<glyph unicode="S" horiz-adv-x="1310" d="M66 459h317q12 -113 74.5 -176.5t212.5 -63.5q109 0 175 54.5t66 140.5q0 88 -57 127t-219 63q-287 37 -408 136.5t-121 308.5q0 190 146.5 313t386.5 123q248 0 388 -110.5t161 -327.5h-305q-31 195 -244 194q-106 0 -162.5 -45t-56.5 -121q0 -82 54 -122t218 -64 q283 -37 410 -132t127 -313q0 -201 -152.5 -334t-406.5 -133q-291 0 -440.5 127.5t-163.5 354.5z" />
<glyph unicode="T" horiz-adv-x="1222" d="M49 1206v258h1125v-258h-396v-1206h-334v1206h-395z" />
<glyph unicode="U" horiz-adv-x="1513" d="M145 571v893h334v-872q0 -186 62.5 -268t210.5 -82q150 0 216 82t66 280v860h334v-880q0 -297 -159.5 -452t-458.5 -155q-291 0 -448 151.5t-157 442.5z" />
<glyph unicode="V" horiz-adv-x="1435" d="M39 1464h350l348 -1124l348 1124h312l-488 -1464h-381z" />
<glyph unicode="W" horiz-adv-x="1988" d="M43 1464h336l229 -1011l250 1011h283l260 -1018l237 1018h308l-357 -1464h-338l-264 1012l-268 -1012h-320z" />
<glyph unicode="X" horiz-adv-x="1472" d="M61 0l465 752l-430 712h375l279 -487l276 487h340l-418 -702l463 -762h-377l-317 545l-316 -545h-340z" />
<glyph unicode="Y" horiz-adv-x="1327" d="M27 1464h364l297 -561l291 561h321l-456 -833v-631h-334v631z" />
<glyph unicode="Z" horiz-adv-x="1259" d="M37 0v41l698 1165h-620v258h1089v-39l-684 -1165h660v-260h-1143z" />
<glyph unicode="[" horiz-adv-x="798" d="M152 -303v1892h565v-219h-268v-1454h268v-219h-565z" />
<glyph unicode="\" horiz-adv-x="866" d="M20 1589h242l631 -1892h-242z" />
<glyph unicode="]" horiz-adv-x="798" d="M84 -84h266v1454h-266v219h563v-1892h-563v219z" />
<glyph unicode="^" horiz-adv-x="1069" d="M63 817l338 647h267l340 -647h-265l-211 406l-213 -406h-256z" />
<glyph unicode="_" horiz-adv-x="858" d="M-2 -166h862v-162h-862v162z" />
<glyph unicode="`" horiz-adv-x="819" d="M104 1542h312l116 -325h-215z" />
<glyph unicode="a" horiz-adv-x="1155" d="M61 297q0 344 557 344h121v43q0 100 -38.5 148.5t-135.5 48.5q-162 0 -182 -152h-281q12 182 143.5 274.5t338.5 92.5q449 0 448 -398v-698h-289v129q-109 -152 -323 -152q-158 0 -258.5 80t-100.5 240zM352 313q0 -129 156 -129q100 0 165.5 51.5t65.5 139.5v90h-114 q-135 0 -204 -35t-69 -117z" />
<glyph unicode="b" horiz-adv-x="1304" d="M131 0v1556h297v-653q47 82 138 137.5t204 55.5q205 0 336 -145.5t131 -403.5v-17q0 -258 -131 -405.5t-336 -147.5q-121 0 -210 53.5t-132 139.5v-170h-297zM418 528q0 -158 69.5 -238.5t194.5 -80.5q123 0 188.5 82t65.5 237v17q0 158 -69.5 240.5t-186.5 82.5 q-121 0 -191.5 -83t-70.5 -240v-17z" />
<glyph unicode="c" horiz-adv-x="1183" d="M66 522v17q0 252 158.5 404.5t393.5 152.5q205 0 345.5 -100.5t158.5 -315.5h-280q-31 182 -217 182q-117 0 -186.5 -84t-69.5 -235v-17q0 -160 68.5 -242.5t193.5 -82.5q92 0 155.5 53t73.5 154h268q-12 -195 -147 -313t-365 -118q-242 0 -396 144.5t-154 400.5z" />
<glyph unicode="d" horiz-adv-x="1304" d="M68 520v17q0 258 132 408.5t339 150.5q238 0 338 -185v645h294v-1556h-294v178q-43 -86 -137.5 -143.5t-207.5 -57.5q-203 0 -333.5 142.5t-130.5 400.5zM371 526q0 -156 67.5 -236.5t182.5 -80.5q121 0 192.5 82t71.5 239v17q0 158 -66.5 239.5t-189.5 81.5 q-125 0 -191.5 -83t-66.5 -242v-17z" />
<glyph unicode="e" horiz-adv-x="1202" d="M66 522v17q0 250 156.5 403.5t393.5 153.5q225 0 374 -137.5t149 -407.5v-82h-772q6 -133 75.5 -207t190.5 -74q193 0 223 150h281q-27 -174 -160 -267.5t-352 -93.5q-248 0 -403.5 146.5t-155.5 398.5zM371 651h479q-14 240 -234 240q-100 0 -164.5 -62.5t-80.5 -177.5z " />
<glyph unicode="f" horiz-adv-x="759" d="M39 860v211h141v123q0 184 100.5 279.5t282.5 95.5q86 0 154 -21v-223q-51 18 -109 18q-133 0 -133 -141v-131h234v-211h-234v-860h-295v860h-141z" />
<glyph unicode="g" horiz-adv-x="1302" d="M66 559v14q0 227 135 375t336 148q236 0 340 -185v160h294v-987q-2 -236 -149.5 -357.5t-415.5 -121.5q-483 0 -532 372h295q31 -156 237 -155q270 0 271 262v162q-47 -84 -139.5 -141.5t-205.5 -57.5q-201 0 -333.5 139.5t-132.5 372.5zM369 559q0 -131 69.5 -210 t182.5 -79q119 0 191.5 79t72.5 214v15q0 137 -68.5 214.5t-189.5 77.5q-123 0 -190.5 -79.5t-67.5 -215.5v-16z" />
<glyph unicode="h" horiz-adv-x="1259" d="M131 0v1556h297v-655q43 86 132 140.5t216 54.5q166 0 263.5 -103.5t97.5 -310.5v-682h-297v639q0 111 -45 163t-144 52q-100 0 -161.5 -60.5t-61.5 -175.5v-618h-297z" />
<glyph unicode="i" horiz-adv-x="575" d="M117 1378.5q0 69.5 48 115.5t119.5 46t121 -46t49.5 -115.5t-49.5 -115.5t-121 -46t-119.5 46t-48 115.5zM139 0v1071h295v-1071h-295z" />
<glyph unicode="j" horiz-adv-x="575" d="M-2 -162q76 6 108.5 41t32.5 101v1091h295v-1089q0 -178 -98 -270.5t-338 -94.5v221zM117 1378.5q0 69.5 48 115.5t119.5 46t121 -46t49.5 -115.5t-49.5 -115.5t-121 -46t-119.5 46t-48 115.5z" />
<glyph unicode="k" horiz-adv-x="1136" d="M131 0v1556h297v-938l344 453h315l-389 -487l420 -584h-336l-354 506v-506h-297z" />
<glyph unicode="l" horiz-adv-x="573" d="M139 0v1556h295v-1556h-295z" />
<glyph unicode="m" horiz-adv-x="1890" d="M131 0v1071h297v-164q43 82 129 135.5t199 53.5q223 0 299 -187q125 186 360 187q158 0 255 -102.5t97 -307.5v-686h-294v653q0 199 -168 199q-90 0 -148.5 -57.5t-58.5 -161.5v-633h-295v653q0 199 -168 199q-90 0 -148.5 -57.5t-58.5 -161.5v-633h-297z" />
<glyph unicode="n" horiz-adv-x="1259" d="M131 0v1071h297v-170q43 86 132 140.5t216 54.5q166 0 263.5 -103.5t97.5 -310.5v-682h-297v639q0 111 -45 163t-144 52q-100 0 -161.5 -60.5t-61.5 -175.5v-618h-297z" />
<glyph unicode="o" horiz-adv-x="1261" d="M66 524v17q0 248 159.5 401.5t405.5 153.5t404.5 -150.5t158.5 -398.5v-17q0 -250 -160 -401.5t-405 -151.5q-244 0 -403.5 150.5t-159.5 396.5zM369 530q0 -154 68.5 -240.5t193.5 -86.5t193.5 86t68.5 239v15q0 154 -68.5 240.5t-193.5 86.5q-123 0 -192.5 -85 t-69.5 -238v-17z" />
<glyph unicode="p" horiz-adv-x="1304" d="M131 -365v1436h297v-168q47 82 138 137.5t204 55.5q205 0 336 -145.5t131 -403.5v-17q0 -258 -131 -405.5t-336 -147.5q-119 0 -209 52.5t-133 134.5v-529h-297zM418 528q0 -158 69.5 -238.5t194.5 -80.5q123 0 188.5 82t65.5 237v17q0 158 -69.5 240.5t-186.5 82.5 q-121 0 -191.5 -83t-70.5 -240v-17z" />
<glyph unicode="q" horiz-adv-x="1304" d="M68 520v17q0 258 132 408.5t339 150.5q238 0 338 -185v160h294v-1436h-294v537q-45 -82 -138.5 -138.5t-206.5 -56.5q-203 0 -333.5 142.5t-130.5 400.5zM371 526q0 -156 67.5 -236.5t182.5 -80.5q121 0 192.5 82t71.5 239v17q0 158 -66.5 239.5t-189.5 81.5 q-125 0 -191.5 -83t-66.5 -242v-17z" />
<glyph unicode="r" horiz-adv-x="837" d="M131 0v1071h297v-205q102 219 346 221v-276h-10q-164 0 -249 -62q-87 -65 -87 -212v-537h-297z" />
<glyph unicode="s" horiz-adv-x="1028" d="M53 336h277q10 -76 53 -114t135 -38q168 0 168 117q0 53 -49 82t-168 45q-217 33 -306 106.5t-89 227.5q0 160 124 247t300 87q406 0 442 -332h-272q-25 129 -168 129q-72 0 -112 -31t-40 -80q0 -51 44 -75.5t163 -40.5q217 -31 316.5 -102.5t99.5 -233.5 q0 -172 -118 -262.5t-333 -90.5q-217 0 -338 92.5t-129 266.5z" />
<glyph unicode="t" horiz-adv-x="772" d="M39 860v211h137v232h295v-232h225v-211h-225v-516q0 -127 119 -127q63 0 112 21v-230q-82 -29 -180 -28q-170 0 -258 86t-88 251v543h-137z" />
<glyph unicode="u" horiz-adv-x="1253" d="M123 381v690h295v-649q0 -215 186 -215q98 0 160.5 60.5t62.5 174.5v629h295v-1071h-295v168q-96 -190 -340 -191q-166 0 -265 100.5t-99 303.5z" />
<glyph unicode="v" horiz-adv-x="1171" d="M29 1071h317l256 -766l254 766h287l-389 -1071h-334z" />
<glyph unicode="w" horiz-adv-x="1691" d="M33 1071h311l191 -721l206 721h244l189 -721l202 721h285l-338 -1071h-291l-182 672l-197 -672h-295z" />
<glyph unicode="x" horiz-adv-x="1175" d="M35 0l366 547l-342 524h340l201 -321l197 321h307l-342 -502l377 -569h-342l-226 360l-231 -360h-305z" />
<glyph unicode="y" horiz-adv-x="1161" d="M29 1071h319l260 -643l240 643h285l-580 -1436h-287l189 474z" />
<glyph unicode="z" horiz-adv-x="1021" d="M29 0v33l528 809h-475v229h905v-37l-532 -805h512v-229h-938z" />
<glyph unicode="{" horiz-adv-x="829" d="M70 541v211q127 0 178 56t37 142l-33 187q-41 242 83 349t410 107v-217q-131 -4 -178 -54t-26 -179l30 -219q14 -104 -41 -177t-165 -100q111 -25 166 -97.5t40 -178.5l-30 -217q-20 -131 26.5 -183.5t177.5 -56.5v-215q-285 0 -409.5 109.5t-83.5 345.5l33 188 q14 86 -37 142.5t-178 56.5z" />
<glyph unicode="|" horiz-adv-x="536" d="M162 -303v1892h213v-1892h-213z" />
<glyph unicode="}" horiz-adv-x="829" d="M82 -86q133 4 179 56.5t28 183.5l-31 217q-14 106 41 179t166 97q-111 27 -166 98.5t-41 178.5l31 219q18 129 -28 179t-179 54v217q287 0 411.5 -107.5t84.5 -348.5l-33 -187q-14 -86 37 -142t176 -56v-211q-125 0 -176.5 -56.5t-36.5 -142.5l33 -188 q41 -236 -84 -345.5t-412 -109.5v215z" />
<glyph unicode="~" horiz-adv-x="1007" d="M70 446q10 176 86.5 264.5t183.5 88.5q82 0 180 -48.5t125 -48.5q80 0 92 101h201q-8 -170 -86 -262t-182 -92q-84 0 -182.5 48t-125.5 48q-80 0 -92 -99h-200z" />
<glyph unicode="&#xa1;" horiz-adv-x="649" d="M137 1067q0 74 55.5 125t133 51t132 -51t54.5 -125q0 -76 -54.5 -127t-132 -51t-133 52t-55.5 126zM158 -240l45 1008h241l45 -1008h-331z" />
<glyph unicode="&#xa2;" horiz-adv-x="1196" d="M66 522v17q0 231 138 379.5t353 173.5v196h145v-196q180 -14 300 -118t139 -294h-277q-20 154 -162 186v-671q164 39 183 213h262q-12 -178 -131 -293t-314 -133v-258h-145v258q-221 20 -356 162t-135 378zM360 526q0 -274 197 -327v665q-90 -25 -143.5 -108.5 t-53.5 -212.5v-17z" />
<glyph unicode="&#xa3;" horiz-adv-x="1300" d="M51 0q8 111 63.5 200t153.5 122q18 59 19 116q0 70 -29 170h-178v203h117q-31 109 -31 221q0 207 147.5 330t374.5 123q244 0 374 -122t142 -333h-305q-18 102 -64.5 151.5t-138.5 49.5q-90 0 -145 -58.5t-55 -154.5q0 -98 20 -207h391v-203h-350q14 -92 14 -170 q0 -61 -24 -125q33 -10 88 -29.5t92 -29.5t68 -10q141 0 149 141h295q-10 -180 -109.5 -291.5t-275.5 -111.5q-111 0 -254 57t-184 57q-100 0 -113 -96h-252z" />
<glyph unicode="&#xa5;" horiz-adv-x="1271" d="M35 1464h360l264 -544l259 544h317l-383 -735h297v-137h-336v-125h336v-135h-336v-332h-332v332h-336v135h336v125h-336v137h295z" />
<glyph unicode="&#xa6;" horiz-adv-x="544" d="M162 -303v917h213v-917h-213zM162 758v831h213v-831h-213z" />
<glyph unicode="&#xa7;" horiz-adv-x="1191" d="M59 598q0 100 59.5 172t166.5 107q-104 92 -105 245q0 162 124 262.5t308 100.5q195 0 305.5 -94.5t116.5 -262.5h-272q-12 143 -154 144q-74 0 -111.5 -35t-37.5 -92q0 -61 47 -94t188 -68q106 -27 178 -53.5t135.5 -69.5t94.5 -106.5t31 -151.5q0 -96 -59.5 -169 t-164.5 -111q102 -90 103 -244q0 -156 -122 -257.5t-310 -101.5q-197 0 -310.5 95.5t-119.5 265.5h276q10 -152 156 -152q76 0 113.5 35t37.5 92q0 59 -50 93t-194 69q-215 53 -322.5 137t-107.5 244zM346 635q0 -57 50 -89t175 -69l152 -47q123 29 123 131q0 61 -47 91 t-174 69l-156 47q-123 -22 -123 -133z" />
<glyph unicode="&#xa8;" horiz-adv-x="819" d="M49 1376.5q0 61.5 44 104.5t107.5 43t107.5 -43t44 -104.5t-44 -104.5t-107.5 -43t-107.5 43t-44 104.5zM467 1376.5q0 61.5 44 104.5t107.5 43t107.5 -43t44 -104.5t-44 -104.5t-107.5 -43t-107.5 43t-44 104.5z" />
<glyph unicode="&#xa9;" horiz-adv-x="1726" d="M90 731q0 319 225.5 542.5t550.5 223.5q328 0 550 -221t222 -541q0 -324 -225 -546t-551 -222q-322 0 -547 220t-225 544zM207 731q0 -293 191.5 -479t463.5 -186q274 0 466 188t192 481q0 291 -189.5 477.5t-464.5 186.5q-279 0 -469 -187.5t-190 -480.5zM455 723v16 q0 184 116.5 299t294.5 115q162 0 261.5 -78t111.5 -229h-223q-18 133 -150 133q-86 0 -134 -62.5t-48 -177.5v-14q0 -115 48 -176.5t138 -61.5q145 0 164 142h213q-10 -154 -111.5 -236t-263.5 -82q-201 0 -309 111t-108 301z" />
<glyph unicode="&#xaa;" horiz-adv-x="942" d="M57 846q0 270 445 270h96v39q0 70 -28.5 103.5t-96.5 33.5q-115 0 -133 -108h-250q10 145 116.5 222t278.5 77q373 0 373 -322v-551h-256v101q-84 -121 -256 -121q-125 0 -207 64.5t-82 191.5zM319 866q0 -92 111 -92q74 0 121 36t47 99v64h-88q-191 -1 -191 -107z" />
<glyph unicode="&#xab;" horiz-adv-x="997" d="M84 535l260 380h211l-250 -380l250 -381h-211zM451 535l260 380h211l-250 -380l250 -381h-211z" />
<glyph unicode="&#xad;" horiz-adv-x="745" d="M111 459v235h524v-235h-524z" />
<glyph unicode="&#xae;" horiz-adv-x="1056" d="M63 1028.5q0 190.5 135.5 323.5t329.5 133q197 0 330 -132t133 -323q0 -193 -134 -324t-328.5 -131t-330 131.5t-135.5 322zM152 1028q0 -166 107.5 -270.5t269 -104.5t269 105.5t107.5 271.5t-105.5 271.5t-271.5 105.5q-164 0 -270 -105.5t-106 -273.5zM360 811v449 h175q182 0 182 -142v-2q0 -86 -82 -121l108 -184h-131l-92 162h-33v-162h-127zM487 1055h41q66 0 66 55v2q0 51 -66 51h-41v-108z" />
<glyph unicode="&#xaf;" horiz-adv-x="819" d="M111 1280v178h596v-178h-596z" />
<glyph unicode="&#xb0;" horiz-adv-x="907" d="M102 1139q0 141 103.5 242.5t249 101.5t248 -101.5t102.5 -242.5q0 -139 -102.5 -239.5t-248 -100.5t-249 100.5t-103.5 239.5zM264 1139q0 -86 54.5 -145.5t136.5 -59.5q80 0 132 58.5t52 146.5q0 90 -52 149.5t-132 59.5q-82 0 -136.5 -59.5t-54.5 -149.5z" />
<glyph unicode="&#xb1;" horiz-adv-x="1128" d="M76 0v205h981v-205h-981zM76 688v221h368v353h242v-353h369v-221h-369v-350h-242v350h-368z" />
<glyph unicode="&#xb2;" horiz-adv-x="673" d="M12 721v29l262 274q129 133 129 205q0 80 -77 80q-82 0 -97 -117h-202q6 137 88 210t221 73q137 0 211 -63.5t74 -168.5q0 -123 -148 -264l-100 -98h254v-160h-615z" />
<glyph unicode="&#xb3;" horiz-adv-x="718" d="M39 965h197q10 -100 108 -100.5t98 83.5t-102 84h-59v131h57q100 0 100 82q0 74 -82 74q-88 0 -100 -92h-197q8 111 86 179.5t215 68.5q135 0 212 -55.5t77 -149.5q0 -123 -131 -160q68 -12 109 -57t41 -111q0 -109 -81 -172t-231 -63q-156 0 -234.5 69.5t-82.5 188.5z " />
<glyph unicode="&#xb4;" horiz-adv-x="819" d="M287 1217l116 325h312l-213 -325h-215z" />
<glyph unicode="&#xb6;" horiz-adv-x="1155" d="M70 1069q0 193 122.5 294t325.5 101h477v-1669h-151v1544h-156v-1544h-149v891h-21q-207 0 -327.5 98.5t-120.5 284.5z" />
<glyph unicode="&#xb7;" horiz-adv-x="600" d="M117 670q0 74 53 126t129 52q78 0 131 -52.5t53 -125.5q0 -76 -53 -128.5t-131 -52.5q-76 0 -129 52.5t-53 128.5z" />
<glyph unicode="&#xb8;" horiz-adv-x="819" d="M180 -270h152q12 -63 78 -64q33 0 52 18.5t19 49.5q0 29 -18.5 46t-50.5 17q-39 0 -64 -20l-74 71l93 152h133l-60 -98q88 10 150.5 -35t62.5 -137q0 -86 -64.5 -135.5t-168.5 -49.5q-102 0 -166 49.5t-74 135.5z" />
<glyph unicode="&#xb9;" horiz-adv-x="544" d="M43 1149v182l199 133h194v-743h-225v528z" />
<glyph unicode="&#xba;" horiz-adv-x="1046" d="M66 1024v12q0 203 130 325t328.5 122t327.5 -119t129 -317v-13q0 -203 -130 -323.5t-328.5 -120.5t-327.5 118.5t-129 315.5zM336 1032q0 -117 48 -179t140 -62q90 0 138.5 63.5t48.5 177.5v12q0 113 -48.5 175.5t-138.5 62.5t-139 -62.5t-49 -175.5v-12z" />
<glyph unicode="&#xbb;" horiz-adv-x="997" d="M78 154l248 381l-248 380h211l258 -380l-258 -381h-211zM444 154l248 381l-248 380h211l258 -380l-258 -381h-211z" />
<glyph unicode="&#xbc;" horiz-adv-x="1542" d="M49 1149v182l199 133h194v-743h-225v528zM123 0l1106 1464h172l-1106 -1464h-172zM813 141v82l317 520h269v-450h96v-152h-96v-141h-215v141h-371zM1016 293h174v299z" />
<glyph unicode="&#xbd;" horiz-adv-x="1556" d="M49 1149v182l199 133h194v-743h-225v528zM96 0l1106 1464h172l-1106 -1464h-172zM887 0v31l262 274q129 129 129 205q0 80 -78 80q-82 0 -96 -119h-203q6 137 88 210t221 73q137 0 211 -63.5t74 -168.5q0 -123 -147 -264l-101 -96h254v-162h-614z" />
<glyph unicode="&#xbe;" horiz-adv-x="1583" d="M45 965h197q10 -100 108.5 -100.5t98.5 83.5t-103 84h-59v131h57q100 0 100 82q0 74 -82 74q-88 0 -100 -92h-196q8 111 85.5 179.5t215.5 68.5q135 0 211.5 -55.5t76.5 -149.5q0 -123 -131 -160q68 -12 109 -57t41 -111q0 -109 -81 -172t-231 -63q-156 0 -234.5 69.5 t-82.5 188.5zM211 0l1106 1464h172l-1106 -1464h-172zM850 141v82l317 520h269v-450h96v-152h-96v-141h-215v141h-371zM1053 293h174v299z" />
<glyph unicode="&#xbf;" horiz-adv-x="1089" d="M76 111q0 94 44 167.5t124 151.5q12 12 56 54t60.5 59.5t44 51.5t40 62.5t16.5 59.5v51h274v-61q0 -74 -34.5 -144.5t-68.5 -107.5t-100 -101q-70 -66 -104.5 -115t-34.5 -104q0 -154 158 -153q84 0 138 56t65 155h284q-8 -209 -146 -330t-359.5 -121t-339 100.5 t-117.5 268.5zM414 1067q0 74 54 125t132 51t132 -51t54 -125t-54 -126t-132 -52t-132 52t-54 126z" />
<glyph unicode="&#xc0;" horiz-adv-x="1474" d="M43 0l481 1464h432l476 -1464h-347l-100 326h-530l-101 -326h-311zM436 1847h320l106 -284h-223zM526 561h387l-192 633z" />
<glyph unicode="&#xc1;" horiz-adv-x="1474" d="M43 0l481 1464h432l476 -1464h-347l-100 326h-530l-101 -326h-311zM526 561h387l-192 633zM608 1563l109 284h321l-207 -284h-223z" />
<glyph unicode="&#xc2;" horiz-adv-x="1474" d="M43 0l481 1464h432l476 -1464h-347l-100 326h-530l-101 -326h-311zM383 1563l229 284h252l221 -284h-213l-139 108l-141 -108h-209zM526 561h387l-192 633z" />
<glyph unicode="&#xc3;" horiz-adv-x="1474" d="M43 0l481 1464h432l476 -1464h-347l-100 326h-530l-101 -326h-311zM377 1565q10 137 74.5 211.5t158.5 74.5q55 0 132 -38.5t106 -38.5q55 0 70 75h178q-12 -135 -78 -209.5t-158 -74.5q-59 0 -135 37.5t-100 37.5q-57 0 -72 -75h-176zM526 561h387l-192 633z" />
<glyph unicode="&#xc4;" horiz-adv-x="1474" d="M43 0l481 1464h432l476 -1464h-347l-100 326h-530l-101 -326h-311zM362 1724.5q0 61.5 44.5 104.5t107.5 43q61 0 106.5 -43t45.5 -104.5t-45.5 -105.5t-106.5 -44q-63 0 -107.5 44t-44.5 105.5zM526 561h387l-192 633zM805 1724.5q0 61.5 44 104.5t105 43 q63 0 107.5 -43t44.5 -104.5t-44 -105.5t-108 -44q-61 0 -105 44t-44 105.5z" />
<glyph unicode="&#xc5;" horiz-adv-x="1474" d="M43 0l481 1464h432l476 -1464h-347l-100 326h-530l-101 -326h-311zM500 1763.5q0 94.5 69.5 162t165.5 67.5t166 -67.5t70 -162t-70 -161t-166 -66.5t-165.5 66.5t-69.5 161zM526 561h387l-192 633zM635 1763q0 -47 27.5 -77.5t72.5 -30.5q43 0 72 30.5t29 77.5t-29 79 t-72 32q-45 0 -72.5 -32t-27.5 -79z" />
<glyph unicode="&#xc6;" horiz-adv-x="2013" d="M35 0l696 1464h1176v-258h-615v-342h490v-241h-490v-365h650v-258h-981v344h-447l-158 -344h-321zM621 573h340v633h-50z" />
<glyph unicode="&#xc7;" horiz-adv-x="1531" d="M82 723v16q0 330 206 539t521 209q274 0 449.5 -135t199.5 -398h-340q-37 270 -307 271q-174 0 -276.5 -129t-102.5 -355v-16q0 -227 100.5 -353t280.5 -126q139 0 227 70.5t109 209.5h326q-27 -260 -196 -400t-437 -149l-45 -75q88 10 150.5 -35t62.5 -137 q0 -86 -64.5 -135.5t-169.5 -49.5q-102 0 -165.5 49.5t-73.5 135.5h151q12 -63 78 -64q33 0 52.5 18.5t19.5 49.5q0 29 -18.5 46t-51.5 17q-39 0 -63 -20l-74 71l82 136q-305 29 -468 225.5t-163 513.5z" />
<glyph unicode="&#xc8;" horiz-adv-x="1218" d="M158 0v1464h954v-258h-625v-342h500v-241h-500v-365h658v-258h-987zM350 1847h320l106 -284h-223z" />
<glyph unicode="&#xc9;" horiz-adv-x="1218" d="M158 0v1464h954v-258h-625v-342h500v-241h-500v-365h658v-258h-987zM522 1563l109 284h321l-207 -284h-223z" />
<glyph unicode="&#xca;" horiz-adv-x="1218" d="M158 0v1464h954v-258h-625v-342h500v-241h-500v-365h658v-258h-987zM297 1563l229 284h252l221 -284h-213l-139 108l-141 -108h-209z" />
<glyph unicode="&#xcb;" horiz-adv-x="1218" d="M158 0v1464h954v-258h-625v-342h500v-241h-500v-365h658v-258h-987zM276 1724.5q0 61.5 44.5 104.5t107.5 43q61 0 106.5 -43t45.5 -104.5t-45.5 -105.5t-106.5 -44q-63 0 -107.5 44t-44.5 105.5zM719 1724.5q0 61.5 44 104.5t105 43q63 0 107.5 -43t44.5 -104.5 t-44 -105.5t-108 -44q-61 0 -105 44t-44 105.5z" />
<glyph unicode="&#xcc;" horiz-adv-x="665" d="M33 1847h319l107 -284h-223zM166 0v1464h334v-1464h-334z" />
<glyph unicode="&#xcd;" horiz-adv-x="665" d="M166 0v1464h334v-1464h-334zM205 1563l108 284h322l-207 -284h-223z" />
<glyph unicode="&#xce;" horiz-adv-x="665" d="M-20 1563l229 284h252l221 -284h-213l-139 108l-142 -108h-208zM166 0v1464h334v-1464h-334z" />
<glyph unicode="&#xcf;" horiz-adv-x="665" d="M-41 1724.5q0 61.5 44 104.5t108 43q61 0 106 -43t45 -104.5t-45 -105.5t-106 -44q-63 0 -107.5 44t-44.5 105.5zM166 0v1464h334v-1464h-334zM401 1724.5q0 61.5 44 104.5t106 43q63 0 107 -43t44 -104.5t-44 -105.5t-107 -44q-61 0 -105.5 44t-44.5 105.5z" />
<glyph unicode="&#xd0;" horiz-adv-x="1542" d="M63 621v229h134v614h479q377 0 572.5 -190.5t195.5 -525.5v-17q0 -338 -196.5 -534.5t-573.5 -196.5h-477v621h-134zM524 258h140q434 0 434 469v16q0 231 -105.5 347t-330.5 116h-138v-356h310v-229h-310v-363z" />
<glyph unicode="&#xd1;" horiz-adv-x="1552" d="M158 0v1464h385l557 -964v964h295v-1464h-332l-610 1042v-1042h-295zM449 1565q10 137 74.5 211.5t158.5 74.5q55 0 132 -38.5t106 -38.5q55 0 69 75h178q-12 -135 -77.5 -209.5t-157.5 -74.5q-59 0 -135 37.5t-101 37.5q-57 0 -71 -75h-176z" />
<glyph unicode="&#xd2;" d="M82 723v16q0 326 213 536t541 210q332 0 542.5 -205t210.5 -532v-17q0 -330 -207.5 -542t-547.5 -212t-546 210t-206 536zM428 725q0 -221 114.5 -352t297.5 -131q186 0 294.5 132t108.5 353v16q0 217 -108.5 348.5t-299 131.5t-299 -130t-108.5 -352v-16zM535 1847h319 l107 -284h-224z" />
<glyph unicode="&#xd3;" d="M82 723v16q0 326 213 536t541 210q332 0 542.5 -205t210.5 -532v-17q0 -330 -207.5 -542t-547.5 -212t-546 210t-206 536zM428 725q0 -221 114.5 -352t297.5 -131q186 0 294.5 132t108.5 353v16q0 217 -108.5 348.5t-299 131.5t-299 -130t-108.5 -352v-16zM707 1563 l108 284h322l-207 -284h-223z" />
<glyph unicode="&#xd4;" d="M82 723v16q0 326 213 536t541 210q332 0 542.5 -205t210.5 -532v-17q0 -330 -207.5 -542t-547.5 -212t-546 210t-206 536zM428 725q0 -221 114.5 -352t297.5 -131q186 0 294.5 132t108.5 353v16q0 217 -108.5 348.5t-299 131.5t-299 -130t-108.5 -352v-16zM481 1563 l230 284h252l221 -284h-213l-140 108l-141 -108h-209z" />
<glyph unicode="&#xd5;" d="M82 723v16q0 326 213 536t541 210q332 0 542.5 -205t210.5 -532v-17q0 -330 -207.5 -542t-547.5 -212t-546 210t-206 536zM428 725q0 -221 114.5 -352t297.5 -131q186 0 294.5 132t108.5 353v16q0 217 -108.5 348.5t-299 131.5t-299 -130t-108.5 -352v-16zM475 1565 q10 137 74.5 211.5t159.5 74.5q55 0 132 -38.5t105 -38.5q55 0 70 75h178q-12 -135 -77.5 -209.5t-158.5 -74.5q-59 0 -134.5 37.5t-100.5 37.5q-57 0 -72 -75h-176z" />
<glyph unicode="&#xd6;" d="M82 723v16q0 326 213 536t541 210q332 0 542.5 -205t210.5 -532v-17q0 -330 -207.5 -542t-547.5 -212t-546 210t-206 536zM428 725q0 -221 114.5 -352t297.5 -131q186 0 294.5 132t108.5 353v16q0 217 -108.5 348.5t-299 131.5t-299 -130t-108.5 -352v-16zM461 1724.5 q0 61.5 44 104.5t107 43q61 0 106.5 -43t45.5 -104.5t-45 -105.5t-107 -44q-63 0 -107 44t-44 105.5zM903 1724.5q0 61.5 44 104.5t106 43q63 0 107 -43t44 -104.5t-44 -105.5t-107 -44q-61 0 -105.5 44t-44.5 105.5z" />
<glyph unicode="&#xd7;" horiz-adv-x="1093" d="M72 1001l157 160l316 -317l315 313l158 -158l-313 -313l317 -315l-162 -160l-315 317l-312 -313l-157 158l313 313z" />
<glyph unicode="&#xd8;" d="M68 43l178 190q-164 195 -164 490v16q0 326 213 536t541 210q260 0 454 -133l156 166l110 -111l-149 -160q182 -203 182 -499v-17q0 -332 -207.5 -543t-547.5 -211q-283 0 -478 148l-178 -191zM424 725q0 -143 47 -250l621 664q-102 84 -256 84q-193 0 -302.5 -129 t-109.5 -353v-16zM563 344q109 -102 277 -102q186 0 296.5 132t110.5 353v16q0 156 -57 271z" />
<glyph unicode="&#xd9;" horiz-adv-x="1513" d="M145 571v893h334v-872q0 -186 62.5 -268t210.5 -82q150 0 216 82t66 280v860h334v-880q0 -297 -159.5 -452t-458.5 -155q-291 0 -448 151.5t-157 442.5zM455 1847h319l107 -284h-224z" />
<glyph unicode="&#xda;" horiz-adv-x="1513" d="M145 571v893h334v-872q0 -186 62.5 -268t210.5 -82q150 0 216 82t66 280v860h334v-880q0 -297 -159.5 -452t-458.5 -155q-291 0 -448 151.5t-157 442.5zM627 1563l108 284h322l-207 -284h-223z" />
<glyph unicode="&#xdb;" horiz-adv-x="1513" d="M145 571v893h334v-872q0 -186 62.5 -268t210.5 -82q150 0 216 82t66 280v860h334v-880q0 -297 -159.5 -452t-458.5 -155q-291 0 -448 151.5t-157 442.5zM401 1563l230 284h252l221 -284h-213l-139 108l-142 -108h-209z" />
<glyph unicode="&#xdc;" horiz-adv-x="1513" d="M145 571v893h334v-872q0 -186 62.5 -268t210.5 -82q150 0 216 82t66 280v860h334v-880q0 -297 -159.5 -452t-458.5 -155q-291 0 -448 151.5t-157 442.5zM381 1724.5q0 61.5 44 104.5t107 43q61 0 106.5 -43t45.5 -104.5t-45 -105.5t-107 -44q-63 0 -107 44t-44 105.5z M823 1724.5q0 61.5 44 104.5t106 43q63 0 107 -43t44 -104.5t-44 -105.5t-107 -44q-61 0 -105.5 44t-44.5 105.5z" />
<glyph unicode="&#xdd;" horiz-adv-x="1327" d="M27 1464h364l297 -561l291 561h321l-456 -833v-631h-334v631zM545 1563l108 284h322l-207 -284h-223z" />
<glyph unicode="&#xde;" horiz-adv-x="1282" d="M158 0v1464h329v-252h177q559 0 559 -452v-8q0 -225 -145.5 -339t-403.5 -114h-187v-299h-329zM487 532h168q248 0 248 220v8q0 211 -248 211h-168v-439z" />
<glyph unicode="&#xdf;" horiz-adv-x="1267" d="M131 0v1130q0 219 144.5 336t361.5 117q209 0 332 -98.5t123 -274.5v-4q0 -102 -67 -187t-177 -118q158 -37 257 -149.5t99 -280.5v-14q0 -240 -128 -358.5t-331 -118.5q-102 0 -192 26v230q57 -25 129 -25q221 0 221 262v12q0 145 -87 216t-238 69v225q119 -2 176 57.5 t57 141.5v8q0 84 -48 130t-140 46q-90 0 -143.5 -60.5t-53.5 -164.5v-1153h-295z" />
<glyph unicode="&#xe0;" horiz-adv-x="1155" d="M61 297q0 344 557 344h121v43q0 100 -38.5 148.5t-135.5 48.5q-162 0 -182 -152h-281q12 182 143.5 274.5t338.5 92.5q449 0 448 -398v-698h-289v129q-109 -152 -323 -152q-158 0 -258.5 80t-100.5 240zM272 1542h312l116 -325h-215zM352 313q0 -129 156 -129 q100 0 165.5 51.5t65.5 139.5v90h-114q-135 0 -204 -35t-69 -117z" />
<glyph unicode="&#xe1;" horiz-adv-x="1155" d="M61 297q0 344 557 344h121v43q0 100 -38.5 148.5t-135.5 48.5q-162 0 -182 -152h-281q12 182 143.5 274.5t338.5 92.5q449 0 448 -398v-698h-289v129q-109 -152 -323 -152q-158 0 -258.5 80t-100.5 240zM352 313q0 -129 156 -129q100 0 165.5 51.5t65.5 139.5v90h-114 q-135 0 -204 -35t-69 -117zM463 1217l117 325h311l-213 -325h-215z" />
<glyph unicode="&#xe2;" horiz-adv-x="1155" d="M61 297q0 344 557 344h121v43q0 100 -38.5 148.5t-135.5 48.5q-162 0 -182 -152h-281q12 182 143.5 274.5t338.5 92.5q449 0 448 -398v-698h-289v129q-109 -152 -323 -152q-158 0 -258.5 80t-100.5 240zM219 1219l240 319h223l233 -319h-208l-142 129l-143 -129h-203z M352 313q0 -129 156 -129q100 0 165.5 51.5t65.5 139.5v90h-114q-135 0 -204 -35t-69 -117z" />
<glyph unicode="&#xe3;" horiz-adv-x="1155" d="M61 297q0 344 557 344h121v43q0 100 -38.5 148.5t-135.5 48.5q-162 0 -182 -152h-281q12 182 143.5 274.5t338.5 92.5q449 0 448 -398v-698h-289v129q-109 -152 -323 -152q-158 0 -258.5 80t-100.5 240zM231 1227q10 139 72 214t154 75q55 0 131 -38t104 -38q55 0 70 76 h172q-12 -139 -75.5 -215t-153.5 -76q-57 0 -132 39t-100 39q-27 0 -46 -21.5t-26 -54.5h-170zM352 313q0 -129 156 -129q100 0 165.5 51.5t65.5 139.5v90h-114q-135 0 -204 -35t-69 -117z" />
<glyph unicode="&#xe4;" horiz-adv-x="1155" d="M61 297q0 344 557 344h121v43q0 100 -38.5 148.5t-135.5 48.5q-162 0 -182 -152h-281q12 182 143.5 274.5t338.5 92.5q449 0 448 -398v-698h-289v129q-109 -152 -323 -152q-158 0 -258.5 80t-100.5 240zM221 1376.5q0 61.5 44 104.5t107.5 43t107.5 -43t44 -104.5 t-44 -104.5t-107.5 -43t-107.5 43t-44 104.5zM352 313q0 -129 156 -129q100 0 165.5 51.5t65.5 139.5v90h-114q-135 0 -204 -35t-69 -117zM639 1376.5q0 61.5 44 104.5t107.5 43t107.5 -43t44 -104.5t-44 -104.5t-107.5 -43t-107.5 43t-44 104.5z" />
<glyph unicode="&#xe5;" horiz-adv-x="1155" d="M61 297q0 344 557 344h121v43q0 100 -38.5 148.5t-135.5 48.5q-162 0 -182 -152h-281q12 182 143.5 274.5t338.5 92.5q449 0 448 -398v-698h-289v129q-109 -152 -323 -152q-158 0 -258.5 80t-100.5 240zM348 1425q0 92 68.5 159t165 67t165 -66.5t68.5 -159.5 q0 -94 -68.5 -160.5t-165 -66.5t-165 66.5t-68.5 160.5zM352 313q0 -129 156 -129q100 0 165.5 51.5t65.5 139.5v90h-114q-135 0 -204 -35t-69 -117zM483 1425.5q0 -47.5 28 -78t71 -30.5t70.5 30.5t27.5 78t-27.5 78t-70.5 30.5t-71 -30.5t-28 -78z" />
<glyph unicode="&#xe6;" horiz-adv-x="1839" d="M61 297q0 180 147.5 265t405.5 85h127v37q0 98 -39.5 147.5t-134.5 49.5q-164 0 -184 -152h-281q12 182 142.5 274.5t328.5 92.5q250 0 342 -144q133 143 351 144q221 0 365.5 -135.5t144.5 -409.5v-80h-752q16 -283 254 -283q188 0 215 150h279q-25 -174 -154 -267.5 t-342 -93.5q-283 0 -412 199q-141 -199 -422 -199q-168 0 -274.5 80t-106.5 240zM352 319q0 -135 156 -135q104 0 168.5 51.5t64.5 139.5v94h-120q-133 0 -201 -34t-68 -116zM1028 647h459q-18 244 -221 244q-98 0 -161 -64.5t-77 -179.5z" />
<glyph unicode="&#xe7;" horiz-adv-x="1183" d="M66 522v17q0 252 158.5 404.5t393.5 152.5q205 0 345.5 -100.5t158.5 -315.5h-280q-31 182 -217 182q-117 0 -186.5 -84t-69.5 -235v-17q0 -160 68.5 -242.5t193.5 -82.5q92 0 155.5 53t73.5 154h268q-12 -188 -140 -305t-345 -126l-45 -75q88 10 150.5 -35t62.5 -137 q0 -86 -64.5 -135.5t-168.5 -49.5q-102 0 -166 49.5t-74 135.5h151q12 -63 78 -64q33 0 52.5 18.5t19.5 49.5q0 29 -18.5 46t-51.5 17q-39 0 -63 -20l-74 71l82 138q-203 29 -325.5 169t-122.5 367z" />
<glyph unicode="&#xe8;" horiz-adv-x="1202" d="M66 522v17q0 250 156.5 403.5t393.5 153.5q225 0 374 -137.5t149 -407.5v-82h-772q6 -133 75.5 -207t190.5 -74q193 0 223 150h281q-27 -174 -160 -267.5t-352 -93.5q-248 0 -403.5 146.5t-155.5 398.5zM301 1542h311l117 -325h-215zM371 651h479q-14 240 -234 240 q-100 0 -164.5 -62.5t-80.5 -177.5z" />
<glyph unicode="&#xe9;" horiz-adv-x="1202" d="M66 522v17q0 250 156.5 403.5t393.5 153.5q225 0 374 -137.5t149 -407.5v-82h-772q6 -133 75.5 -207t190.5 -74q193 0 223 150h281q-27 -174 -160 -267.5t-352 -93.5q-248 0 -403.5 146.5t-155.5 398.5zM371 651h479q-14 240 -234 240q-100 0 -164.5 -62.5t-80.5 -177.5z M492 1217l116 325h312l-213 -325h-215z" />
<glyph unicode="&#xea;" horiz-adv-x="1202" d="M66 522v17q0 250 156.5 403.5t393.5 153.5q225 0 374 -137.5t149 -407.5v-82h-772q6 -133 75.5 -207t190.5 -74q193 0 223 150h281q-27 -174 -160 -267.5t-352 -93.5q-248 0 -403.5 146.5t-155.5 398.5zM262 1219l240 319h223l233 -319h-208l-142 129l-143 -129h-203z M371 651h479q-14 240 -234 240q-100 0 -164.5 -62.5t-80.5 -177.5z" />
<glyph unicode="&#xeb;" horiz-adv-x="1202" d="M66 522v17q0 250 156.5 403.5t393.5 153.5q225 0 374 -137.5t149 -407.5v-82h-772q6 -133 75.5 -207t190.5 -74q193 0 223 150h281q-27 -174 -160 -267.5t-352 -93.5q-248 0 -403.5 146.5t-155.5 398.5zM250 1376.5q0 61.5 44 104.5t107.5 43t107.5 -43t44 -104.5 t-44 -104.5t-107.5 -43t-107.5 43t-44 104.5zM371 651h479q-14 240 -234 240q-100 0 -164.5 -62.5t-80.5 -177.5zM668 1376.5q0 61.5 44 104.5t107.5 43t107.5 -43t44 -104.5t-44 -104.5t-107.5 -43t-107.5 43t-44 104.5z" />
<glyph unicode="&#xec;" horiz-adv-x="575" d="M-20 1542h311l117 -325h-215zM139 0v1071h295v-1071h-295z" />
<glyph unicode="&#xed;" horiz-adv-x="575" d="M139 0v1071h295v-1071h-295zM170 1217l117 325h311l-213 -325h-215z" />
<glyph unicode="&#xee;" horiz-adv-x="575" d="M-59 1219l239 319h223l234 -319h-209l-141 129l-144 -129h-202zM139 0v1071h295v-1071h-295z" />
<glyph unicode="&#xef;" horiz-adv-x="575" d="M-68 1376.5q0 61.5 44 104.5t106 43q63 0 107 -43t44 -104.5t-44 -104.5t-107 -43q-61 0 -105.5 43t-44.5 104.5zM139 0v1071h295v-1071h-295zM340 1376.5q0 61.5 44 104.5t105 43q63 0 107.5 -43t44.5 -104.5t-44 -104.5t-108 -43q-61 0 -105 43t-44 104.5z" />
<glyph unicode="&#xf0;" horiz-adv-x="1261" d="M66 535v20q0 236 144 383t339 147q154 0 252 -110q-66 141 -213 291l-266 -115l-54 117l217 94q-100 86 -252 194h338q86 -51 144 -96l203 88l51 -118l-142 -62q367 -342 367 -760v-45q0 -266 -157.5 -426t-411.5 -160q-244 0 -401.5 153t-157.5 405zM369 530 q0 -156 68.5 -241.5t193.5 -85.5t193.5 86t68.5 239v15q0 154 -68.5 240.5t-191.5 86.5t-193.5 -85t-70.5 -238v-17z" />
<glyph unicode="&#xf1;" horiz-adv-x="1259" d="M131 0v1071h297v-170q43 86 132 140.5t216 54.5q166 0 263.5 -103.5t97.5 -310.5v-682h-297v639q0 111 -45 163t-144 52q-100 0 -161.5 -60.5t-61.5 -175.5v-618h-297zM279 1227q10 139 71.5 214t153.5 75q55 0 131 -38t104 -38q55 0 70 76h172q-12 -139 -75.5 -215 t-153.5 -76q-57 0 -132 39t-100 39q-27 0 -46 -21.5t-25 -54.5h-170z" />
<glyph unicode="&#xf2;" horiz-adv-x="1261" d="M66 524v17q0 248 159.5 401.5t405.5 153.5t404.5 -150.5t158.5 -398.5v-17q0 -250 -160 -401.5t-405 -151.5q-244 0 -403.5 150.5t-159.5 396.5zM319 1542h312l117 -325h-216zM369 530q0 -154 68.5 -240.5t193.5 -86.5t193.5 86t68.5 239v15q0 154 -68.5 240.5 t-193.5 86.5q-123 0 -192.5 -85t-69.5 -238v-17z" />
<glyph unicode="&#xf3;" horiz-adv-x="1261" d="M66 524v17q0 248 159.5 401.5t405.5 153.5t404.5 -150.5t158.5 -398.5v-17q0 -250 -160 -401.5t-405 -151.5q-244 0 -403.5 150.5t-159.5 396.5zM369 530q0 -154 68.5 -240.5t193.5 -86.5t193.5 86t68.5 239v15q0 154 -68.5 240.5t-193.5 86.5q-123 0 -192.5 -85 t-69.5 -238v-17zM510 1217l117 325h311l-213 -325h-215z" />
<glyph unicode="&#xf4;" horiz-adv-x="1261" d="M66 524v17q0 248 159.5 401.5t405.5 153.5t404.5 -150.5t158.5 -398.5v-17q0 -250 -160 -401.5t-405 -151.5q-244 0 -403.5 150.5t-159.5 396.5zM281 1219l239 319h223l234 -319h-209l-141 129l-144 -129h-202zM369 530q0 -154 68.5 -240.5t193.5 -86.5t193.5 86 t68.5 239v15q0 154 -68.5 240.5t-193.5 86.5q-123 0 -192.5 -85t-69.5 -238v-17z" />
<glyph unicode="&#xf5;" horiz-adv-x="1261" d="M66 524v17q0 248 159.5 401.5t405.5 153.5t404.5 -150.5t158.5 -398.5v-17q0 -250 -160 -401.5t-405 -151.5q-244 0 -403.5 150.5t-159.5 396.5zM279 1227q10 139 71.5 214t153.5 75q55 0 131 -38t104 -38q55 0 70 76h172q-12 -139 -75.5 -215t-153.5 -76q-57 0 -132 39 t-100 39q-27 0 -46 -21.5t-25 -54.5h-170zM369 530q0 -154 68.5 -240.5t193.5 -86.5t193.5 86t68.5 239v15q0 154 -68.5 240.5t-193.5 86.5q-123 0 -192.5 -85t-69.5 -238v-17z" />
<glyph unicode="&#xf6;" horiz-adv-x="1261" d="M66 524v17q0 248 159.5 401.5t405.5 153.5t404.5 -150.5t158.5 -398.5v-17q0 -250 -160 -401.5t-405 -151.5q-244 0 -403.5 150.5t-159.5 396.5zM268 1376.5q0 61.5 44 104.5t107.5 43t107.5 -43t44 -104.5t-44 -104.5t-107.5 -43t-107.5 43t-44 104.5zM369 530 q0 -154 68.5 -240.5t193.5 -86.5t193.5 86t68.5 239v15q0 154 -68.5 240.5t-193.5 86.5q-123 0 -192.5 -85t-69.5 -238v-17zM686 1376.5q0 61.5 44 104.5t107.5 43t107.5 -43t44 -104.5t-44 -104.5t-107.5 -43t-107.5 43t-44 104.5z" />
<glyph unicode="&#xf7;" horiz-adv-x="1132" d="M76 592v213h981v-213h-981zM395 290.5q0 69.5 50.5 119t119.5 49.5q72 0 122 -49.5t50 -119t-50 -118.5t-121.5 -49t-121 49t-49.5 118.5zM395 1106q0 70 49.5 119t121 49t121.5 -49t50 -119t-50 -119t-121.5 -49t-121 49t-49.5 119z" />
<glyph unicode="&#xf8;" horiz-adv-x="1261" d="M45 12l143 154q-123 145 -122 358v17q0 248 159.5 401.5t405.5 153.5q193 0 330 -95l135 146l100 -90l-133 -144q131 -147 131 -366v-17q0 -250 -160 -401.5t-405 -151.5q-197 0 -340 99l-144 -154zM367 530q0 -88 20 -149l404 436q-63 53 -160 53q-125 0 -194.5 -85 t-69.5 -238v-17zM459 260q66 -59 172 -59q125 0 194.5 87t69.5 240v15q0 86 -27 159z" />
<glyph unicode="&#xf9;" horiz-adv-x="1253" d="M123 381v690h295v-649q0 -215 186 -215q98 0 160.5 60.5t62.5 174.5v629h295v-1071h-295v168q-96 -190 -340 -191q-166 0 -265 100.5t-99 303.5zM315 1542h312l116 -325h-215z" />
<glyph unicode="&#xfa;" horiz-adv-x="1253" d="M123 381v690h295v-649q0 -215 186 -215q98 0 160.5 60.5t62.5 174.5v629h295v-1071h-295v168q-96 -190 -340 -191q-166 0 -265 100.5t-99 303.5zM506 1217l117 325h311l-213 -325h-215z" />
<glyph unicode="&#xfb;" horiz-adv-x="1253" d="M123 381v690h295v-649q0 -215 186 -215q98 0 160.5 60.5t62.5 174.5v629h295v-1071h-295v168q-96 -190 -340 -191q-166 0 -265 100.5t-99 303.5zM276 1219l240 319h223l234 -319h-209l-141 129l-144 -129h-203z" />
<glyph unicode="&#xfc;" horiz-adv-x="1253" d="M123 381v690h295v-649q0 -215 186 -215q98 0 160.5 60.5t62.5 174.5v629h295v-1071h-295v168q-96 -190 -340 -191q-166 0 -265 100.5t-99 303.5zM264 1376.5q0 61.5 44 104.5t107.5 43t107.5 -43t44 -104.5t-44 -104.5t-107.5 -43t-107.5 43t-44 104.5zM682 1376.5 q0 61.5 44 104.5t107.5 43t107.5 -43t44 -104.5t-44 -104.5t-107.5 -43t-107.5 43t-44 104.5z" />
<glyph unicode="&#xfd;" horiz-adv-x="1161" d="M29 1071h319l260 -643l240 643h285l-580 -1436h-287l189 474zM481 1217l117 325h311l-213 -325h-215z" />
<glyph unicode="&#xfe;" horiz-adv-x="1304" d="M131 -365v1921h297v-653q47 82 138 137.5t204 55.5q205 0 336 -145.5t131 -403.5v-17q0 -258 -131 -405.5t-336 -147.5q-119 0 -209 52.5t-133 134.5v-529h-297zM418 528q0 -158 69.5 -238.5t194.5 -80.5q123 0 188.5 82t65.5 237v17q0 158 -69.5 240.5t-186.5 82.5 q-121 0 -191.5 -83t-70.5 -240v-17z" />
<glyph unicode="&#xff;" horiz-adv-x="1161" d="M29 1071h319l260 -643l240 643h285l-580 -1436h-287l189 474zM240 1376.5q0 61.5 44 104.5t107.5 43t107.5 -43t44 -104.5t-44 -104.5t-107.5 -43t-107.5 43t-44 104.5zM657 1376.5q0 61.5 44 104.5t107.5 43t108 -43t44.5 -104.5t-44.5 -104.5t-108 -43t-107.5 43 t-44 104.5z" />
<glyph unicode="&#x152;" horiz-adv-x="1986" d="M82 717v16q0 338 197.5 534.5t570.5 196.5h1030v-258h-592v-342h467v-241h-467v-365h627v-258h-1067q-375 0 -570.5 190.5t-195.5 526.5zM428 721q0 -231 104.5 -347t331.5 -116h94v948h-98q-432 0 -432 -469v-16z" />
<glyph unicode="&#x153;" horiz-adv-x="2025" d="M66 524v17q0 248 159.5 401.5t405.5 153.5q266 0 409 -189q143 188 400 189q225 0 373.5 -137.5t148.5 -407.5v-82h-774q8 -135 76.5 -208t191.5 -73q195 0 221 150h281q-25 -174 -158 -267.5t-352 -93.5q-272 0 -412 185q-143 -184 -407 -185q-244 0 -403.5 150.5 t-159.5 396.5zM369 530q0 -156 68.5 -241.5t193.5 -85.5t193.5 86t68.5 239v15q0 154 -68.5 240.5t-193.5 86.5q-123 0 -192.5 -85t-69.5 -238v-17zM1194 651h477q-14 240 -231 240q-100 0 -166 -63.5t-80 -176.5z" />
<glyph unicode="&#x178;" horiz-adv-x="1327" d="M27 1464h364l297 -561l291 561h321l-456 -833v-631h-334v631zM299 1724.5q0 61.5 44 104.5t108 43q61 0 106 -43t45 -104.5t-45 -105.5t-106 -44q-63 0 -107.5 44t-44.5 105.5zM741 1724.5q0 61.5 44 104.5t106 43q63 0 107 -43t44 -104.5t-44 -105.5t-107 -44 q-61 0 -105.5 44t-44.5 105.5z" />
<glyph unicode="&#x2c6;" horiz-adv-x="819" d="M61 1219l240 319h223l234 -319h-209l-141 129l-144 -129h-203z" />
<glyph unicode="&#x2dc;" horiz-adv-x="819" d="M59 1227q10 139 72 214t154 75q55 0 131 -38t104 -38q55 0 70 76h172q-12 -139 -75.5 -215t-154.5 -76q-57 0 -131.5 39t-99.5 39q-27 0 -46 -21.5t-26 -54.5h-170z" />
<glyph unicode="&#x2000;" horiz-adv-x="995" />
<glyph unicode="&#x2001;" horiz-adv-x="1992" />
<glyph unicode="&#x2002;" horiz-adv-x="995" />
<glyph unicode="&#x2003;" horiz-adv-x="1992" />
<glyph unicode="&#x2004;" horiz-adv-x="663" />
<glyph unicode="&#x2005;" horiz-adv-x="497" />
<glyph unicode="&#x2006;" horiz-adv-x="331" />
<glyph unicode="&#x2007;" horiz-adv-x="331" />
<glyph unicode="&#x2008;" horiz-adv-x="247" />
<glyph unicode="&#x2009;" horiz-adv-x="397" />
<glyph unicode="&#x200a;" horiz-adv-x="110" />
<glyph unicode="&#x2010;" horiz-adv-x="745" d="M111 459v235h524v-235h-524z" />
<glyph unicode="&#x2011;" horiz-adv-x="745" d="M111 459v235h524v-235h-524z" />
<glyph unicode="&#x2012;" horiz-adv-x="745" d="M111 459v235h524v-235h-524z" />
<glyph unicode="&#x2013;" horiz-adv-x="1095" d="M92 492v188h912v-188h-912z" />
<glyph unicode="&#x2014;" horiz-adv-x="1892" d="M92 492v188h1708v-188h-1708z" />
<glyph unicode="&#x2018;" horiz-adv-x="593" d="M70 1018l264 471l170 -70l-170 -497z" />
<glyph unicode="&#x2019;" horiz-adv-x="593" d="M90 991l170 498l264 -94l-264 -473z" />
<glyph unicode="&#x201a;" horiz-adv-x="591" d="M86 -154l170 500l264 -96l-266 -473z" />
<glyph unicode="&#x201c;" horiz-adv-x="1019" d="M70 1018l264 471l170 -70l-170 -497zM498 1018l264 471l170 -70l-170 -497z" />
<glyph unicode="&#x201d;" horiz-adv-x="1019" d="M90 991l170 498l264 -94l-264 -473zM518 991l170 498l264 -94l-266 -473z" />
<glyph unicode="&#x201e;" horiz-adv-x="1019" d="M86 -154l170 500l264 -96l-266 -473zM512 -154l172 500l264 -96l-266 -473z" />
<glyph unicode="&#x2022;" horiz-adv-x="731" d="M88 622.5q0 114.5 81 195.5t198 81q119 0 197.5 -80t78.5 -196.5t-79 -196.5t-197 -80q-117 0 -198 81t-81 195.5z" />
<glyph unicode="&#x2026;" horiz-adv-x="1763" d="M117 162q0 74 53 126t129 52q78 0 131 -52t53 -126q0 -76 -53 -128t-131 -52q-76 0 -129 52t-53 128zM700 162q0 74 52.5 126t128.5 52q78 0 131 -52t53 -126q0 -76 -53.5 -128t-130.5 -52q-76 0 -128.5 52t-52.5 128zM1282 162q0 74 52 126t128 52q78 0 131.5 -52 t53.5 -126q0 -76 -53.5 -128t-131.5 -52q-76 0 -128 52t-52 128z" />
<glyph unicode="&#x202f;" horiz-adv-x="397" />
<glyph unicode="&#x2039;" horiz-adv-x="638" d="M84 535l260 380h219l-250 -380l250 -381h-219z" />
<glyph unicode="&#x203a;" horiz-adv-x="638" d="M78 154l248 381l-248 380h219l258 -380l-258 -381h-219z" />
<glyph unicode="&#x205f;" horiz-adv-x="497" />
<glyph unicode="&#x20ac;" horiz-adv-x="1439" d="M53 528v136h129v127h-129v135h137q33 250 194 404.5t411 154.5q246 0 391 -129t170 -371h-309q-16 121 -82 184.5t-172 63.5q-119 0 -190 -81t-91 -226h381l-25 -135h-362v-127h340l-25 -136h-309q41 -293 283 -292q231 0 268 274h305q-29 -256 -177.5 -394.5 t-402.5 -138.5q-256 0 -410.5 151t-187.5 400h-137z" />
<glyph unicode="&#x2122;" horiz-adv-x="1523" d="M63 1321v143h543v-143h-180v-516h-182v516h-181zM700 805v659h224l143 -374l145 374h228v-659h-183v426l-172 -426h-57l-170 426v-426h-158z" />
<glyph unicode="&#xe000;" horiz-adv-x="1070" d="M0 1070h1070v-1070h-1070v1070z" />
<glyph unicode="&#xfb01;" horiz-adv-x="1325" d="M39 860v211h141v123q0 184 100.5 279.5t280.5 95.5q84 0 146 -19v-223q-43 16 -101 16q-131 0 -131 -141v-131h232v-211h-232v-860h-295v860h-141zM864 1378.5q0 69.5 48.5 115.5t120 46t120.5 -46t49 -115.5t-49 -115.5t-120.5 -46t-120 46t-48.5 115.5zM887 0v1071h295 v-1071h-295z" />
<glyph unicode="&#xfb02;" horiz-adv-x="1323" d="M39 860v211h141v123q0 184 100.5 279.5t280.5 95.5q84 0 146 -19v-223q-43 16 -101 16q-131 0 -131 -141v-131h232v-211h-232v-860h-295v860h-141zM887 0v1556h295v-1556h-295z" />
<glyph unicode="&#xfb03;" horiz-adv-x="2095" d="M1637 1378.5q0 69.5 48 115.5t119.5 46t121 -46t49.5 -115.5t-49.5 -115.5t-121 -46t-119.5 46t-48 115.5zM1659 0v1071h295v-1071h-295zM799 860v211h141v123q0 184 100.5 279.5t282.5 95.5q86 0 154 -21v-223q-51 18 -109 18q-133 0 -133 -141v-131h234v-211h-234v-860 h-295v860h-141zM39 860v211h141v123q0 184 100.5 279.5t282.5 95.5q86 0 154 -21v-223q-51 18 -109 18q-133 0 -133 -141v-131h234v-211h-234v-860h-295v860h-141z" />
<glyph unicode="&#xfb04;" horiz-adv-x="2093" d="M1659 0v1556h295v-1556h-295zM799 860v211h141v123q0 184 100.5 279.5t282.5 95.5q86 0 154 -21v-223q-51 18 -109 18q-133 0 -133 -141v-131h234v-211h-234v-860h-295v860h-141zM39 860v211h141v123q0 184 100.5 279.5t282.5 95.5q86 0 154 -21v-223q-51 18 -109 18 q-133 0 -133 -141v-131h234v-211h-234v-860h-295v860h-141z" />
</font>
</defs>
</svg>
